<svg xmlns="http://www.w3.org/2000/svg" width="1024" height="1024" viewBox="0 0 1024 1024"><defs><linearGradient id="bg" x1="0.146" y1="0.146" x2="0.854" y2="0.854"><stop offset="0" stop-color="#F0509B"/><stop offset="1" stop-color="#FF8A3B"/></linearGradient></defs><rect width="1024" height="1024" fill="url(#bg)"/><g transform="translate(81.92,102.40) scale(10.2400)" ><polygon points="18,34 24,8 42,26" fill="#FFF7EE"></polygon><polygon points="66,34 60,8 42,26" fill="#FFF7EE"></polygon><polygon points="21.5,30 25.5,14 36,25" fill="#33253A" opacity="0.25"></polygon><polygon points="62.5,30 58.5,14 48,25" fill="#33253A" opacity="0.25"></polygon><circle cx="42" cy="48" r="26" fill="#FFF7EE"></circle><ellipse cx="42" cy="58" rx="15" ry="12" fill="#FFFFFF"></ellipse><circle cx="33" cy="45" r="3.2" fill="#33253A"></circle><circle cx="34.2" cy="43.8" r="1" fill="#fff"></circle><path d="M47.8 45.5c1.6-2 4.8-2 6.4 0" stroke="#33253A" stroke-width="2.6" fill="none" stroke-linecap="round"></path><ellipse cx="42" cy="53" rx="3" ry="2.4" fill="#33253A"></ellipse></g></svg>